<?xml version="1.0" encoding="UTF-8"?>
<svg width="14px" height="18px" viewBox="0 0 14 18" version="1.1" xmlns="http://www.w3.org/2000/svg" xmlns:xlink="http://www.w3.org/1999/xlink">
    <title>形状</title>
    <g id="UAP-OXM版单编辑" stroke="none" stroke-width="1" fill="none" fill-rule="evenodd">
        <g id="UAP-OXM系统化-研发制作单评注（交互说明）" transform="translate(-897.000000, -1736.000000)" fill="#2079C7" fill-rule="nonzero">
            <g id="图钉备份" transform="translate(893.000000, 1734.000000)">
                <path d="M15.8864113,8.55348648 L15.2902878,7.94428647 L15.2902878,5.71981943 C15.8847204,4.82754176 16.1997111,3.77168988 16.1934911,2.69227275 C16.1934911,2.30994107 15.8902029,2 15.516078,2 L6.48391776,2 C6.10979285,2 5.80650468,2.30994107 5.80650468,2.69227275 C5.79992847,3.77203215 6.11494252,4.82828687 6.70970801,5.72074967 L6.70970801,7.94339949 L6.1135845,8.55259951 C4.75575132,9.93309728 3.99470783,11.8113057 4.0000277,13.7686583 C4.0000277,14.1507712 4.30353676,14.4609311 4.67746878,14.4609311 L10.3225848,14.4609311 L10.3225848,19.3077273 C10.3225848,19.6900589 10.625873,20 10.9999979,20 C11.3741228,20 11.677411,19.6900589 11.677411,19.3077273 L11.677411,14.461818 L17.322527,14.461818 C17.6966519,14.461818 17.9999702,14.151877 17.9999702,13.7695453 C18.0054887,11.8121522 17.2444144,9.93386786 15.8864113,8.55348648 L15.8864113,8.55348648 Z M5.39372726,13.0763639 C5.54279513,11.7348006 6.13433707,10.4850677 7.07100204,9.53283608 L7.86584044,8.72149242 C7.99290944,8.59179005 8.06437792,8.41582928 8.06453416,8.23229356 L8.06453416,5.46320258 C8.06468235,5.2795985 7.99316779,5.10351649 7.86584044,4.97398208 C7.51427422,4.5149497 7.29164247,3.96675746 7.22183229,3.38822319 L14.7790526,3.38822319 C14.7085948,3.96730763 14.4857114,4.51600574 14.1341553,4.97584257 C14.0070863,5.10554494 13.9356178,5.28150571 13.9354616,5.46504143 L13.9354616,8.23413241 C13.9354616,8.41780102 14.0068017,8.59411424 14.1341553,8.72333127 L14.9289937,9.53467493 C15.8660178,10.4870126 16.4576062,11.7371639 16.6062685,13.0791114 L5.39372726,13.0763423 L5.39372726,13.0763639 Z" id="形状"></path>
            </g>
        </g>
    </g>
</svg>